<svg id="Layer_1" data-name="Layer 1" xmlns="http://www.w3.org/2000/svg" viewBox="0 0 960 960"><defs><style>.cls-1{fill:#1b2051;}</style></defs><path class="cls-1" d="M165.85,340.3a139.75,139.75,0,0,0,0,279.49C242.82,619.36,305.6,557,305.6,480A139.74,139.74,0,0,0,165.85,340.3M293.56,479.61c0,70.52-57.19,127.71-127.71,128.14h-.43a127.71,127.71,0,0,1,0-255.41h.43c70.52-.43,127.71,56.76,127.71,127.27"/><path class="cls-1" d="M240.67,413.83a5.94,5.94,0,0,0-4.73,2.58L140.49,547.55a7.74,7.74,0,0,0,0,9.46L159,582.38a9,9,0,0,0,6.88,3.44,8.36,8.36,0,0,0,6.88-3.44L266,454.25a7.13,7.13,0,0,0,0-9L245.4,416.41a5.94,5.94,0,0,0-4.73-2.58"/><path class="cls-1" d="M214.44,423.72l3-4.3c1.72-2.15,0-5.59-3-5.59H168.86a11.42,11.42,0,0,0-9.46,4.73L103.08,496a7.74,7.74,0,0,0,0,9.46L122,531.21l1.29,1.72h0l2.58,3.44c1.72,2.15,5.16,2.15,6.45,0l3.87-5.59h0ZM133.61,533.79h0"/><path class="cls-1" d="M140.06,423.72l.43-.86h0l2.58-3.44c1.71-2.15,0-5.59-3-5.59H93.19a11.22,11.22,0,0,0-9,4.73L64.81,445.22a7.13,7.13,0,0,0,0,9l18.92,26.22,3.87,5.59c1.72,2.15,5.16,2.15,6.45,0l3.87-5.59Z"/><polygon class="cls-1" points="607.02 467.14 644.42 467.14 644.42 521.32 662.91 521.32 662.91 467.14 700.75 467.14 700.75 450.81 607.02 450.81 607.02 467.14"/><path class="cls-1" d="M376.12,463.27v57.62H394.6V498.1h56.33V482.62H394.6V468a1.14,1.14,0,0,1,1.29-1.29H469V450.38H389a12.93,12.93,0,0,0-12.89,12.89"/><path class="cls-1" d="M921.76,450.81H840.07v70.51h18.49V466.71H914a1.14,1.14,0,0,1,1.29,1.29v53.32H933.8V462.84a12,12,0,0,0-12-12"/><path class="cls-1" d="M805.24,450.81h-74a13.85,13.85,0,0,0-13.76,13.75v42.57a13.86,13.86,0,0,0,13.76,13.76h73.53a13.86,13.86,0,0,0,13.76-13.76V464.56a13.22,13.22,0,0,0-13.33-13.75M800.51,468v35.69a1.14,1.14,0,0,1-1.29,1.29H737.3a1.14,1.14,0,0,1-1.29-1.29V468a1.14,1.14,0,0,1,1.29-1.29h61.92a1.14,1.14,0,0,1,1.29,1.29"/><path class="cls-1" d="M576.06,450.81H502.53a13.85,13.85,0,0,0-13.76,13.75v42.57a13.86,13.86,0,0,0,13.76,13.76h73.53a13.86,13.86,0,0,0,13.76-13.76V464.56c.43-7.74-6-13.75-13.76-13.75M571.76,468v35.69a1.14,1.14,0,0,1-1.29,1.29H508.55a1.14,1.14,0,0,1-1.29-1.29V468a1.14,1.14,0,0,1,1.29-1.29h61.92a1.37,1.37,0,0,1,1.29,1.29"/></svg>