<?xml version="1.0" encoding="utf-8"?>
<!-- Generator: Adobe Illustrator 28.0.0, SVG Export Plug-In . SVG Version: 6.00 Build 0)  -->
<svg version="1.1" id="Слой_1" xmlns="http://www.w3.org/2000/svg" xmlns:xlink="http://www.w3.org/1999/xlink" x="0px" y="0px"
	 viewBox="0 0 1000 633.3511353" enable-background="new 0 0 1000 633.3511353" xml:space="preserve">
<g>
	<polygon fill="#30535C" points="674.6837769,272.7419434 543.5014038,45.6529999 513.1017456,68.2940216 513.1017456,214.6144714 
		639.8538818,287.7138977 	"/>
	<polygon fill="#30535C" points="486.7828064,68.2797546 456.5056763,45.6944427 325.2565308,272.7398987 360.0307007,287.7111816 
		486.7828064,214.5567322 	"/>
	<polygon fill="#30535C" points="368.8470459,348.0202026 631.1560059,348.0202026 626.8370972,310.3746338 
		499.9737244,237.2527771 373.2216187,310.4078979 	"/>
	<path fill="#30535C" d="M343.4327698,295.4808044v0.0108643l-37.6905823-16.2852173L452.296875,25.5909805l47.6753235,35.4979973
		l47.6641541-35.5088692l146.5658569,253.5821838l-54.4765625,23.4977417l6.3893433,58.617981H354.1299438l6.1445007-58.5174255
		L343.4327698,295.4808044z M658.3594971,313.5909119L658.3594971,313.5909119l60.7434082-26.1582947L552.9683228,0
		l-52.9961243,39.3162308L446.9760437,0.0224202l-166.078949,287.4101868l60.6210632,26.1582947l-6.867981,65.0403748h330.7442322
		L658.3594971,313.5909119z"/>
</g>
<g>
	<path fill="#30535C" d="M869.8687744,497.5651855h28.2094116h13.2136841h8.7734375
		c13.6714478,0,21.1009521,6.8555603,21.1009521,20.8775024v60.5280151c0,14.0219116-7.4295044,20.8667603-21.1107788,20.8667603
		h-28.199585h-13.2234497h-8.7636719c-13.6810913,0-21.1107788-6.8448486-21.1107788-20.8667603V518.442688
		C848.7579956,504.4207458,856.1973877,497.5651855,869.8687744,497.5651855 M945.3632812,631.4841919
		c11.3342285,0,54.6268921-4.6636963,54.6268921-47.2947388L1000,513.2233276
		c0-42.6304626-43.3024902-47.2947388-54.6270752-47.2947388H844.5612183c-11.3247681,0-54.6270752,4.6642761-54.6270752,47.2947388
		v70.9661255c0,42.6310425,43.3023071,47.2947388,54.6270752,47.2947388H945.3632812z"/>
	<path fill="#30535C" d="M749.0710449,465.9274292h-46.866333c-2.9505615,0-5.3361816,2.3957214-5.3361816,5.3364563v110.2279358
		c0,7.9746704-7.1082764,10.5748291-10.9058838,10.5748291h-26.8754272c-3.7781372,0-10.8961182-2.6001587-10.8961182-10.5748291
		V471.2638855c0-2.9407349-2.3954468-5.3364563-5.3459473-5.3364563h-46.8565674
		c-2.9503784,0-5.3361816,2.3957214-5.3361816,5.3364563v110.2279358c0,7.9746704-7.1179199,10.5748291-10.9058838,10.5748291
		h-13.8076782h-13.0675659c-3.7879639,0-10.9060669-2.6001587-10.9060669-10.5748291V471.2638855
		c0-2.9407349-2.3856201-5.3364563-5.3359985-5.3364563h-46.8663635c-2.9407349,0-5.3361816,2.3957214-5.3361816,5.3364563
		v110.2279358v3.5635986c0,3.6027832,2.0740662,7.5758667,7.4686279,10.6045532
		c4.2261047,2.3755493,59.6418152,30.7796021,71.9889832,37.0996704c1.5287476,0.7886353,3.3204956,0.7886353,4.8492432,0
		c7.7218018-3.9534912,32.3282471-16.5639038,50.6834106-26.0184326
		c18.3648682,9.4545288,42.9616699,22.0649414,50.6931152,26.0184326c1.519043,0.7886353,3.3106689,0.7886353,4.8394165,0
		c12.347168-6.3200684,67.7727051-34.7241211,71.9987793-37.0996704c5.3847656-3.0286865,7.4588013-7.00177,7.4588013-10.6045532
		v-3.5635986V471.2638855C754.4070435,468.3231506,752.0214233,465.9274292,749.0710449,465.9274292"/>
	<path fill="#30535C" d="M319.1047974,497.5651855h28.2094116h13.2136841h8.7734375
		c13.6714478,0,21.1009521,6.8555603,21.1009521,20.8775024v60.5280151c0,14.0219116-7.4295044,20.8667603-21.1107483,20.8667603
		h-28.1996155h-13.2234802h-8.7636414c-13.6810913,0-21.1107483-6.8448486-21.1107483-20.8667603V518.442688
		C297.9940491,504.4207458,305.4333801,497.5651855,319.1047974,497.5651855 M394.5992737,631.4841919
		c11.334259,0,54.6269226-4.6636963,54.6269226-47.2947388l0.0098267-70.9661255
		c0-42.6304626-43.3024902-47.2947388-54.6270752-47.2947388H293.7972107c-11.3247681,0-54.6270905,4.6642761-54.6270905,47.2947388
		v70.9661255c0,42.6310425,43.3023224,47.2947388,54.6270905,47.2947388H394.5992737z"/>
	<path fill="#30535C" d="M197.9525452,465.926239h-46.8274231c-2.9602051,0-5.3555603,2.3957214-5.3555603,5.3560486v45.6585693
		c0,9.4943237-4.5474091,14.8694458-11.5875854,14.8694458h-25.2394791H94.3656006H69.1261139
		c-7.0499001,0-11.5875854-5.3751221-11.5875854-14.8694458v-45.6585693c0-2.9603271-2.4050903-5.3560486-5.3555489-5.3560486
		H5.3556247C2.3954329,465.926239,0,468.3219604,0,471.2822876v154.8446655c0,2.9603271,2.3954329,5.3554688,5.3556247,5.3554688
		h46.8273544c2.9504585,0,5.3555489-2.3951416,5.3555489-5.3554688v-48.784729
		c0-7.0397949,5.034317-12.4053955,11.9088898-12.4053955h24.9181824h14.5768967h24.9181747
		c6.8648376,0,11.9088898,5.3656006,11.9088898,12.4053955v48.784729c0,2.9603271,2.3953552,5.3554688,5.3555603,5.3554688
		h46.8274231c2.9600372,0,5.3554688-2.3951416,5.3554688-5.3554688V471.2822876
		C203.3080139,468.3219604,200.9125824,465.926239,197.9525452,465.926239"/>
</g>
</svg>
