<?xml version="1.0" encoding="utf-8"?>
<!-- Generator: Adobe Illustrator 28.0.0, SVG Export Plug-In . SVG Version: 6.00 Build 0)  -->
<svg version="1.1" id="Слой_1" xmlns="http://www.w3.org/2000/svg" xmlns:xlink="http://www.w3.org/1999/xlink" x="0px" y="0px"
	 viewBox="0 0 626.1 1000" style="enable-background:new 0 0 626.1 1000;" xml:space="preserve">
<style type="text/css">
	.st0{fill-rule:evenodd;clip-rule:evenodd;fill:#0D53A0;}
</style>
<path class="st0" d="M417.2,673.7c-3-19.6-3-21-5.2-26.8c-13.8,3.5-29,4.7-33.8-10.6c-13.8,8.2-17.9,9-33.5,7.8
	c-5.2-12.5-10.4-25.1-15.3-37.5c-4.1-3.1-8.2-5.9-11.9-8.6c-12.3-15.6-13.8-30.5-34.2-39.9c-16.7-26.6-17.5-25.8-49.1-32.8
	c-8.9-3.5-20.1-9.8-29.4-9.8c3.3,5.5,7,11.3,10.8,17.2c5.6,2.3,11.5,4.7,17.5,7c13.8,14.5,16,38.7,31.6,54.4c0.7-6.3-0.4-9-1.9-15.3
	c24.5,0,34.2,9,36,34.4c-14.1,33.2-43.1,29.7-57.6-1.2c-4.1-3.1-28.6-14.9-52.8-28.2c-9.7-13.7-14.9-30.1-26.4-42.2
	c-12.6-8.2-25.6-16.4-35.7-28.2c-1.9-13.7-3.3-23.9-10.8-36c-4.5-4.3-27.5-22.3-27.5-28.1C58.2,439.4,67.6,333.8,70,309
	c10-29.7,10-29.7,14.1-48.5c2.2-23.5,2.2-23.5,4.8-88.8c9.3-15.3,20.1-25.8,0.4-34c6.7-17.2,23.8-28.2,30.1-45
	c0-7-1.9-10.2-1.9-14.1c26.8-18.4,46.4-28.9,57.2-61C184.5,7,184.5,7,193.4,0h2.6c-0.7,9-1.1,18-1.5,27.4
	c26.8-5.1,29.7-6.7,33.1-6.3c-3.7,6.3-4.4,7-5.6,14.1c8.5,0.8,17.1,2,26,3.1c27.5,10.6,60.2-2.3,88.5,5.9c4.8,5,5.1,10.5,5.1,17.1
	c17.7,2.7,23.2,20.5,6.8,27.1c-10.4,0.4-20.8,0.4-30.8,4.3c0,2,0.4,3.9,0.7,5.9c8.5,0,17.5,0.4,26.4,0.8c3,16.8-11.5,32.5-26.8,21.9
	c-23.4,1.6-23.4,1.6-36.1,4.3c-5.6,14.5-32.7,15.2-44.6,15.6c-3.3,27-1.1,54.4-0.4,81.7c26.4-3.5,37.2-4.3,62.8,3.1
	c13.8-9.6,29.6-17.4,43.8-23.4c58-15.6,121.3-5.5,180.8-5.5c3,0,5.9,0,9.3,0.4c-1.5,6.3-5.9,11.3-9.7,16
	c-14.5,5.5-27.5,8.6-27.9,10.2c2.6,2.3,2.6,2.3,8.5,4.7c-5.2,19.6-50.2,12.1-55,28.2c3.3,2.7,3.3,2.7,10,5.1
	c-36.8,17.2-68.4,2.3-107.1,0.4c-3.4,0.8-6.3,2-9.3,3.1c13.7,24.8,16.4,71.1,17.5,107.2c0,2,0,3.9,0.4,5.9
	c15.3,30.1,23.4,60.2,27.5,93.9c4.1,14.5,11.5,23.9,19.7,36c4.8,14.8,4.8,14.8,12.3,49.3c7.4,12.1,14.9,24.6,22.3,37.2
	c4.8,19.9,31.6,47.7,29.4,63.4c-4.5,0-16.5,12.2-18.4,16.1C441.2,673.9,429.5,673.7,417.2,673.7 M414.6,601.1L414.6,601.1
	c0.7,8.2,0.7,32.1,5.9,37.6c3-2.8,6.3-5.1,9.7-7.5c1.9-6.6-11.1-27.4-13.8-32.1C415.7,599.6,415,600.4,414.6,601.1 M416.5,599.2
	L416.5,599.2c-1.5-2.8-3-5.5-4.1-8.2h-6.3c-1.5,3.1-1.5,3.1-1.9,9c3.4,0.4,6.7,0.8,10.4,1.2C415,600.4,415.7,599.6,416.5,599.2
	 M380.1,599.2L380.1,599.2c4.8-1.6-3-19.2-4.1-22.3c-20.5-21.5-16-52.4-36.4-75.1c-18.6-12.1-25.3-19.6-33.5-40.3
	c-5.9,1.2-5.9,1.2-16,5.5c-23.4,27.8,1.5,25,17.8,45c5.2,10.9,10.4,22.3,16,33.6c9.7,10.2,24.5,19.2,26.4,34.1
	C360,585.9,370,592.5,380.1,599.2 M395.3,560.1L395.3,560.1c2.6-0.8,5.2-1.6,7.8-2.3c0-3.5,0-7,0.4-10.2
	c-10.4-20.3-21.9-40.3-31.2-61.8c-5.2-19.9-9.3-38.3-33.1-38.3c-8.2,11.3,4.8,27.3,10.8,37.1c19,8.2,25.3,25,35,43.4
	C384.9,540.1,382.3,553.4,395.3,560.1 M200.1,555L200.1,555c4.1-1.2,8.2-2.4,12.6-3.5v-5.1c-27.1-16-22.3-50.5-42.4-68.8h-10
	c-13.8,19.2,4.8,25.4,18.6,39.9C186.8,529.6,193.8,541.7,200.1,555 M202,444.7L202,444.7c7.1-3.1,11.5-5.9,17.9-10.6
	c-0.4-1.2-0.4-2.3-0.4-3.5c-2.2-1.2-2.2-1.2-11.5-2c-10-7.8-18.6-4.3-28.6-9.4c-10.1-15.3-23.1-25.8-37.5-36.8
	c-7.4,3.5-11.5,6.6-17.1,12.5c2.6,28.6,12.3,33.6,36.8,44.2C175.2,439.2,188.6,441.2,202,444.7 M233.2,423.2L233.2,423.2
	c15.6-1.6,16.4-5.1,22.3-19.9c5.9-7.4,14.5-16,16.4-25.8c-8.5-27.8-22.3-26.6-49.4-25c-1.1,2.3-2.2,5.1-3.4,7.8
	c1.5,3.9,3.4,7.8,5.2,12.1c19,10.6,29,26.2,7.1,40.3C230.2,417.7,231.3,418.5,233.2,423.2 M319.8,418.1L319.8,418.1
	c5.6-0.8,14.9-3.9,14.9-11c-7-12.1-10.4-20.3-24.9-20.3c1.1-20.3,14.9-9.8,22.3-23.1c15.5-40.6,25.6-100.5-45-123.6
	c0.4,5.1,0.7,9.4-1.1,13.3c-16.4-9.4-31.6-14.1-50.6-14.1c1.1,20.3,1.5,37.9,6.7,57.5c18.6,23.8,51.7,57.9,55.7,90.3
	c-5.2,8.6-16.7,2.7-14.9,16.4c1.1,0,2.2,0,3.3,0.4C302,392.3,310.5,404.8,319.8,418.1 M215,265.6L215,265.6
	c0-40.3,0.6-81.2,5.2-121.2c-3.7-3.9-9.3-4.7-14.5-5.5C202.7,179.5,199,227.6,215,265.6 M236.5,58.5L236.5,58.5
	c2.6,7.1,15,9.5,20.5,3.1C255.1,50,244.4,50.2,236.5,58.5 M341.4,61.3L341.4,61.3c0.6-0.2-16.3-5.1-17.3-5.4
	c-2.4,7.1,5.4,11.1,11.8,7.7C337.3,62.8,339.9,61.9,341.4,61.3"/>
<path class="st0" d="M454.1,914.5l-14.1,42.9h28.2L454.1,914.5z M179.3,914.5l-14.2,42.9h28.4L179.3,914.5z M49.4,849.5v51.8
	l51.3-51.8h43l-44.5,43.7l30.5,75.9l39.8-119.6h34.2l39,116.3V849.5h55.5l25.6,84.2l28.3-84.2h53v116.3l38.8-116.3h34.3l41.1,124.4
	l41.8-98.6h-42.4v-25.8h103.7l-51.2,124.6h51.2l-0.7,25.5l-139.6,0.4l-5.6-16.8h-45.4l-5.5,16.8h-66.2v-81.9l-25.3,81.9h-36.8
	l-26.4-81.9v81.9h-63.6l-5.5-16.8l-45.4,0l-5.6,16.8H90.4l-28.2-71.8l-12.7,12.4v59.4H3.5V849.5H49.4z"/>
<rect y="759.4" class="st0" width="626.1" height="26.8"/>
</svg>
