<svg xmlns="http://www.w3.org/2000/svg" width="368.742" height="210" viewBox="0 0 368.742 210"><defs><linearGradient id="a" x1="2.072" x2="44.232" y1="24.862" y2="24.862" gradientTransform="scale(1.3380473,0.74735771)" gradientUnits="userSpaceOnUse"><stop offset="0%" stop-color="#FFF"/><stop offset="30%" stop-color="#F9F9F9"/><stop offset="40%" stop-color="#D1D3D4"/><stop offset="50%" stop-color="#7B7D7F"/><stop offset="60%" stop-color="#525254"/><stop offset="100%" stop-color="#231F20"/></linearGradient><linearGradient id="b" x1="46.769" x2="2.85" y1="39.549" y2="18.21" gradientTransform="scale(1.3435964,0.74427113)" gradientUnits="userSpaceOnUse"><stop offset="0%" stop-color="#FFF"/><stop offset="60%" stop-color="#F8F8F8"/><stop offset="70%" stop-color="#E4E5E6"/><stop offset="80%" stop-color="#939598"/><stop offset="90%" stop-color="#58595B"/><stop offset="100%" stop-color="#231F20"/></linearGradient><linearGradient id="c" x1="6.572" x2="14.189" y1="47.011" y2="31.234" gradientTransform="scale(1.3154217,0.76021246)" gradientUnits="userSpaceOnUse"><stop offset="0%" stop-color="#808285"/><stop offset="100%" stop-color="#E6E7E8"/></linearGradient><linearGradient id="d" x1="1.394" x2="46.057" y1="21.654" y2="28.824" gradientTransform="scale(1.3515791,0.73987531)" gradientUnits="userSpaceOnUse"><stop offset="0%" stop-color="#808285"/><stop offset="20%" stop-color="#D4D6D7"/><stop offset="30%" stop-color="#E3E4E5"/><stop offset="70%" stop-color="#E3E4E5"/><stop offset="80%" stop-color="#D1D3D4"/><stop offset="100%" stop-color="#808285"/></linearGradient><linearGradient id="e" x1="42.12" x2="31.44" y1="44.782" y2="33.244" gradientTransform="scale(1.3119884,0.76220189)" gradientUnits="userSpaceOnUse"><stop offset="0%" stop-color="#808285"/><stop offset="100%" stop-color="#E6E7E8"/></linearGradient><linearGradient id="f" x1="22.446" x2="24.461" y1="48.627" y2="34.707" gradientTransform="scale(1.3576732,0.7365543)" gradientUnits="userSpaceOnUse"><stop offset="0%" stop-color="#ABADB0"/><stop offset="100%" stop-color="#E6E7E8"/></linearGradient></defs><g fill="none" fill-rule="evenodd" transform="translate(-18.999999,174.421) matrix(5.7905556,0,0,5.7905556,-86.020554,-233.34873)"><path fill="#abadb0" d="M 24.775,35.894 H 29.5 l 3.15,3.163 3.149,-3.163 h 4.725 v 9.684 H 35.425 V 42.02 l -2.775,2.79 -2.776,-2.789 v 3.558 h -5.1 v -9.684 z m 34.64,0 h 4.975 l 5.602,4.174 v -4.174 h 5.098 v 9.684 h -5.012 l -5.565,-4.137 v 4.137 h -5.098 z"/><path fill="#abadb0" d="M 19,42.155 C 19,24.97 32.868,11.04 49.976,11.04 c 17.109,0 30.977,13.93 30.977,31.114 0,1.157 -0.063,2.3 -0.186,3.423 h -3.479 c 0.138,-1.122 0.21,-2.264 0.21,-3.423 0,-15.267 -12.322,-27.643 -27.522,-27.643 -15.2,0 -27.52,12.376 -27.52,27.643 0,1.159 0.07,2.301 0.209,3.423 h -3.48 A 31.632,31.632 0 0 1 19,42.155 Z"/><path fill="#abadb0" d="m 47.34,35.894 h 5.292 l 6.276,9.684 h -5.301 l -0.68,-1.055 h -5.881 l -0.68,1.055 h -5.301 z m 2.646,4.04 -1.181,1.834 h 2.363 l -1.182,-1.835 z"/><path fill="url(#a)" d="m 59.054,33.896 c 0.087,-0.902 0.13,-1.815 0.13,-2.739 0,-15.647 -12.628,-28.33 -28.205,-28.33 -15.578,0 -28.206,12.683 -28.206,28.33 0,0.924 0.044,1.837 0.13,2.739 l 0.486,0.439 A 28.305,28.305 0 0 1 3.211,31.157 c 0,-15.404 12.432,-27.89 27.768,-27.89 15.336,0 27.768,12.486 27.768,27.89 0,1.074 -0.06,2.135 -0.178,3.178 l 0.485,-0.44 z" style="fill:url(#a)" transform="translate(19,11)"/><path fill="#fff" fill-rule="nonzero" d="M 29.399,36.14 H 25.02 v 9.192 h 4.608 v -3.906 l 3.022,3.035 3.022,-3.035 v 3.906 H 40.28 V 36.14 h -4.379 l -3.25,3.266 z m 34.91,0 H 59.66 v 9.192 h 4.608 v -4.38 l 5.89,4.38 h 4.687 V 36.14 h -4.608 v 4.418 z"/><path fill="#fff" d="m 51.62,42.014 h -3.266 l 1.632,-2.534 1.633,2.534 z M 52.5,36.14 h -5.027 l -5.956,9.192 h 4.716 l 0.68,-1.056 h 6.147 l 0.68,1.056 h 4.716 L 52.499,36.14 Z"/><path fill="#abadb0" d="m 49.986,38.672 v 0.808 c -0.595,1.273 -1.14,2.118 -1.632,2.534 l -0.804,0.44 z"/><path fill="#231f20" d="m 19.804,44.893 h 2.1 l 0.485,0.44 h -2.983 z m 58.246,0 h 2.1 l 0.397,0.44 h -2.983 z m -53.03,-8.753 0.437,0.44 v 8.313 h 3.734 l 0.437,0.44 H 25.02 Z m 4.171,4.225 3.46,3.474 3.458,-3.474 v 4.528 h 3.734 l 0.437,0.44 H 35.672 V 41.426 L 32.65,44.46 29.628,41.425 Z m 3.46,-0.96 3.25,-3.265 0.182,0.44 -3.433,3.447 v -0.621 z m 17.335,-0.733 2.437,3.781 -0.804,-0.44 -1.633,-2.533 z m 9.674,-2.532 0.438,0.44 v 8.313 h 3.732 l 0.438,0.44 H 59.66 Z m 4.17,3.94 6.473,4.813 h 4.105 l 0.437,0.44 H 70.16 l -5.891,-4.38 -0.438,-0.872 z m 6.407,-3.94 0.437,0.44 v 4.85 l -0.437,-0.872 z"/><path fill="url(#b)" d="M 61.551,34.335 C 61.658,33.29 61.712,32.23 61.712,31.157 61.712,14.108 47.952,0.287 30.979,0.287 14.005,0.288 0.245,14.109 0.245,31.158 c 0,1.073 0.055,2.133 0.161,3.178 l 0.398,-0.44 A 31,31 0 0 1 0.683,31.158 c 0,-16.807 13.563,-30.431 30.296,-30.431 16.732,0 30.296,13.624 30.296,30.43 a 31,31 0 0 1 -0.12,2.739 z" style="fill:url(#b)" transform="translate(19,11)"/><path fill="#231f20" fill-rule="nonzero" d="m 46.674,43.837 h 6.624 l 0.68,1.056 h 3.671 l 0.807,0.44 H 53.74 l -0.68,-1.057 h -6.148 l -0.679,1.056 h -4.716 l 5.956,-9.192 0.237,0.44 -5.386,8.313 h 3.671 l 0.68,-1.056 z"/><path fill="url(#c)" d="M 10.219,25.582 H 6.458 v 8.314 h 3.734 v -4.528 l 3.46,3.474 3.459,-3.475 v 4.529 h 3.733 v -8.314 h -3.76 L 13.65,29.03 10.218,25.582 Z" style="fill:url(#c)" transform="translate(19,11)"/><path fill="url(#d)" d="m 30.979,0.727 c -16.733,0 -30.296,13.624 -30.296,30.43 a 31,31 0 0 0 0.12,2.739 h 2.1 a 28.785,28.785 0 0 1 -0.13,-2.739 c 0,-15.647 12.628,-28.33 28.206,-28.33 15.577,0 28.205,12.683 28.205,28.33 0,0.924 -0.043,1.837 -0.13,2.739 h 2.1 a 31,31 0 0 0 0.121,-2.739 c 0,-16.806 -13.564,-30.43 -30.296,-30.43 z" style="fill:url(#d)" transform="translate(19,11)"/><path fill="url(#e)" d="m 45.168,25.582 h -4.067 v 8.314 h 3.733 v -4.813 l 6.473,4.813 h 4.105 v -8.314 h -3.734 v 4.851 z" style="fill:url(#e)" transform="translate(19,11)"/><path fill="url(#f)" fill-rule="nonzero" d="m 33.426,31.456 h -4.874 l 2.437,-3.782 z m -0.161,-5.874 h -4.553 l -5.386,8.314 h 3.671 l 0.68,-1.057 H 34.3 l 0.68,1.057 h 3.671 l -5.387,-8.314 z" style="fill:url(#f)" transform="translate(19,11)"/></g></svg>