<?xml version="1.0" encoding="utf-8"?>
<!-- Generator: Adobe Illustrator 28.0.0, SVG Export Plug-In . SVG Version: 6.00 Build 0)  -->
<svg version="1.1" id="Слой_1" xmlns="http://www.w3.org/2000/svg" xmlns:xlink="http://www.w3.org/1999/xlink" x="0px" y="0px"
	 viewBox="0 0 1000 494.5125427" enable-background="new 0 0 1000 494.5125427" xml:space="preserve">
<path fill-rule="evenodd" clip-rule="evenodd" fill="#E2000F" d="M500.1959839,427.3586731l-48.3930054-21.6505127
	l47.9479675-164.6630402l48.2341614,164.7003021L500.1959839,427.3586731L500.1959839,427.3586731z M381.8825989,433.1552734
	h-54.2013855l-44.9632263-101.6498413h-66.4330139l-38.9084167,88.013031l-38.8797302-88.013031H72.0312805L0,494.5107422
	l66.4330139,0.0018005l38.832283-87.8354492l38.9558487,87.8336487l66.4350586,0.0018005l38.857132-87.897583l38.8580322,87.897583
	h139.2556763l7.6395569-28.0629272l64.6253052,28.0611267l64.7174683-27.7089539l7.5429077,27.7089539L1000,494.5125427
	l-27.1260986-61.3572693l-46.8152466-17.3324585l29.0011597-22.9612427l-27.1260986-61.3561401H717.0247192l-29.4866333,61.3561401
	h178.8666382l-42.7303467,22.9612427l40.166748,17.0333557l-245.944458,0.2991028L499.8919067,0L381.8825989,433.1552734z"/>
</svg>
