<?xml version="1.0" encoding="utf-8"?>
<!-- Generator: Adobe Illustrator 28.0.0, SVG Export Plug-In . SVG Version: 6.00 Build 0)  -->
<svg version="1.1" id="Слой_1" xmlns="http://www.w3.org/2000/svg" xmlns:xlink="http://www.w3.org/1999/xlink" x="0px" y="0px"
	 viewBox="0 0 1000 1000" enable-background="new 0 0 1000 1000" xml:space="preserve">
<g>
	<g>
		<path fill-rule="evenodd" clip-rule="evenodd" fill="#0C4D89" d="M491.8572693,254.5918427
			c0,0-22.1584473-1.5180664-29.6163635,17.9742889c-7.4583435,19.4931946-52.206604,127.9737244-52.206604,127.9737244
			s-11.1871033,24.7470398,15.4250183,24.7470398c26.6116943,0,30.0012512,0.508728,30.0012512,0.508728
			s17.1199646-3.0509949,5.7631531,25.4252014c-11.3563843,28.4761963-30.5101624,76.4451904-30.5101624,76.4451904
			s-5.9324036,15.2548218-24.4079895,15.2548218c-15.0385132,0-42.651947-0.4492798-52.4072266-0.6165161
			c-31.126709-34.7852478-50.0553894-80.7150269-50.0553894-131.0672913
			c0-108.5956421,88.0340881-196.6292877,196.6298523-196.6292877c45.3705139,0,87.1503601,15.3687897,120.4220276,41.1816559
			L491.8572693,254.5918427L491.8572693,254.5918427z M500.4728088,187.9460907
			c-123.3203125,0-223.2910461,99.9707489-223.2910461,223.2909393c0,123.3207703,99.9707336,223.2919617,223.2910461,223.2919617
			c47.775238,0,92.0444641-15.0079346,128.3560486-40.5616455c-3.6481934-4.1697388-13.6773682-15.6541748-17.5418701-20.2815552
			c-31.5537109,21.565979-69.710022,34.1815186-110.8141785,34.1815186c-43.5646667,0-83.8181458-14.1699219-116.4084473-38.1488647
			l106.4830322,0.4922485c0,0,38.9850769,3.0510254,51.5284119-27.289856
			c12.543335-30.3406982,47.2909546-118.1422424,47.2909546-118.1422424s9.1531372-25.7643738-11.017395-25.7643738h-32.5439453
			c0,0-17.4589844,1.0171814-7.9671021-21.5265808c9.4921875-22.5434875,30.8491821-76.614624,30.8491821-76.614624
			s6.6109009-20.0007935,35.4260864-20.0007935c21.7394409,0,37.5913086,0.3858032,44.0673218,0.5748901
			c30.451416,34.6287537,48.9213257,80.0513916,48.9213257,129.789917c0,41.5556335-12.8910522,80.1004639-34.8922729,111.8536682
			c1.1282959,0.5637817,1.74646,0.9763794,1.74646,0.9763794l19.1276855,15.694519
			c25.6264038-36.3428955,40.6791992-80.6752014,40.6791992-128.5245667
			C723.7633057,287.9168396,623.7927246,187.9460907,500.4728088,187.9460907z"/>
		<path fill-rule="evenodd" clip-rule="evenodd" fill="#0C4D89" d="M661.392334,535.4563599
			c0,0-11.1925049-7.4689941-23.9269409,0.9957886c-12.734436,8.4646606-17.5283203,19.3262939-17.7529907,25.2438354
			c-0.2250977,5.9175415-0.4492798,6.5170898,2.0224609,9.5880127c2.4720459,3.0712891,14.6820068,17.003418,14.6820068,17.003418
			s14.4364014-10.491272,22.7846069-18.8395386c8.3477783-8.3482056,17.7863159-18.5863037,16.9017334-21.9210815
			L661.392334,535.4563599z"/>
	</g>
	<g>
		<polygon fill-rule="evenodd" clip-rule="evenodd" fill="#231F20" points="634.4401245,791.2981567 665.6236572,758.5236206 
			665.7989502,809.5975342 706.2809448,809.1967773 706.361084,712.3921509 667.4289551,712.3274536 635.5519409,752.2085571 
			600.9331665,712.7582397 563.1862183,712.6502075 563.0892944,809.3690796 602.963623,809.4542236 603.2167358,759.9484253 		"/>
		<polygon fill-rule="evenodd" clip-rule="evenodd" fill="#231F20" points="911.5959473,762.6327515 963.4706421,809.5215454 
			1000.4725342,809.5396118 1000.3318481,711.9711304 960.0456543,711.9637451 960.0499878,762.940918 906.4786987,712.0834961 
			872.0415649,712.0219116 872.1340942,809.6018677 911.7799683,809.5376587 		"/>
		<polygon fill-rule="evenodd" clip-rule="evenodd" fill="#231F20" points="181.8473358,774.6862793 219.0881195,774.6818848 
			219.104248,809.5234985 263.7852478,809.5215454 263.5247803,712.590332 218.9293518,712.6546021 218.9615936,747.5449219 
			181.0097046,747.574585 180.912796,712.6521606 136.2180481,712.7120972 136.2298126,809.4431152 181.7850494,809.5215454 		"/>
		<path fill-rule="evenodd" clip-rule="evenodd" fill="#231F20" d="M544.7189331,783.3304443
			c-9.8505249-0.1702881-22.2681885-0.057312-34.5723877-0.0640259
			c-23.8702698-0.0117798-47.213501-3.2183228-45.6090393-24.4805298
			c2.2835693-25.7879639,27.7147522-20.0463257,80.2894592-20.7852783l-0.7918701-27.6204224
			c-18.2068481-0.8265381-68.6227722-2.0533447-83.7610779,2.548584
			c-53.2328796,16.1854858-49.9158936,80.2752686,0.4606323,94.9902344
			c17.2471924,5.0394897,63.445343,2.4471436,84.1868591,2.4682617L544.7189331,783.3304443z"/>
		<path fill-rule="evenodd" clip-rule="evenodd" fill="#231F20" d="M327.5782166,774.3201294l18.2919617-32.5283813
			l17.2424316,32.5930786L327.5782166,774.3201294L327.5782166,774.3201294z M320.3470764,791.9358521l51.1912842,0.0093994
			l9.7283325,17.550354l39.1656494-0.3587036l-54.9460144-97.1405029l-40.5651855-0.0023804
			c-11.1736145,21.1744385-49.4071045,83.2658081-54.9688721,97.4281616l40.9861755,0.1063232L320.3470764,791.9358521z"/>
		<path fill-rule="evenodd" clip-rule="evenodd" fill="#231F20" d="M771.8228149,774.3201294l18.2919312-32.5283813
			l17.2424316,32.5930786L771.8228149,774.3201294L771.8228149,774.3201294z M764.5916138,791.9358521l51.1912842,0.0093994
			l9.7283936,17.550354l39.1655884-0.3587036l-54.9483643-97.1478882l-40.5536499-0.0067749
			c-11.1742554,21.1744385-49.4162598,83.2775879-54.9780273,97.4399414l40.986145,0.1063232L764.5916138,791.9358521z"/>
		<path fill-rule="evenodd" clip-rule="evenodd" fill="#231F20" d="M65.3531494,710.0247192
			c20.4126053,0,52.7798462,4.7801514,58.5670319,29.7136841H80.9799805
			c-0.6241913-2.5880737-2.569519-4.4845581-5.8385849-5.6896362c-2.7964554-1.2416382-6.2920227-1.8625488-10.4871445-1.8625488
			c-11.1860466,0-16.779171,2.1105957-16.779171,6.3323364c0,2.3588867,1.9420547,4.0350342,5.8259468,5.02771
			c21.6455307,5.5354004,74.307991,12.567749,73.6448135,34.4532471
			c-0.3796158,12.5344238-5.865593,21.4793701-17.5961151,26.8183594
			c-11.7298737,5.3383179-27.072052,8.0078125-46.0269737,8.0078125c-10.8761253,0-21.1306648-1.2105103-30.7627602-3.6312866
			c-9.6331825-2.4212036-17.4793777-6.1772461-23.5388031-11.2675171
			c-5.3069515-4.4579468-8.2900562-9.9642334-8.9486609-16.5175781h43.246418
			c0.7235069,3.1119995,2.8472023,5.3587646,6.3699989,6.7404785c4.2726479,1.6760864,8.816452,2.5137329,13.6338081,2.5137329
			c12.8948402,0,19.3425941-2.4205322,19.3425941-7.2625122c0-2.4830322-2.019371-4.2839966-6.0594254-5.4014893
			c-4.0393982-1.1168213-10.6426544-2.2966309-19.8093224-3.5380249
			c-18.7456207-2.5318604-53.2038879-9.8143921-53.6020126-31.1010132
			c-0.2254152-12.041748,5.709868-20.6101074,17.1293869-25.7003784
			C32.1439247,712.569397,47.020462,710.0247192,65.3531494,710.0247192z"/>
	</g>
</g>
</svg>
