<?xml version="1.0" encoding="utf-8"?>
<!-- Generator: Adobe Illustrator 14.0.0, SVG Export Plug-In . SVG Version: 6.00 Build 43363)  -->
<!DOCTYPE svg PUBLIC "-//W3C//DTD SVG 1.1//EN" "http://www.w3.org/Graphics/SVG/1.1/DTD/svg11.dtd">
<svg version="1.1" id="图层_1" xmlns="http://www.w3.org/2000/svg" xmlns:xlink="http://www.w3.org/1999/xlink" x="0px" y="0px"
	 width="1488.129px" height="1440.125px" viewBox="0 0 1488.129 1440.125" enable-background="new 0 0 1488.129 1440.125"
	 xml:space="preserve">
<g>
	<g>
		<g>
			<path fill="#024375" d="M878.495,128.537c-13.344,3.711-26.36,11.854-40.398,16.242c-38.397,12.019-94.982,22.338-145.362,13.747
				c-26.305-4.488-50.407-8.793-72.882-16.662c-11.937-4.716-23.883-9.442-35.819-14.158
				C473.532,321.5,363.002,515.348,252.501,709.143c-0.283,0.548-0.558,1.106-0.832,1.664c3.885,3.053,7.769,6.105,11.663,9.167
				c15.291,11.736,30.408,25.016,42.482,39.979c9.569,11.863,20.574,22.804,29.568,35.399
				c24.358,34.146,43.104,71.849,57.061,116.625c4.908,15.757,10.721,34.083,11.242,53.313
				c220.035-0.137,440.125-0.284,660.159-0.421c1.526-7.769,3.053-15.547,4.579-23.325c4.79-19.039,9.433-38.205,16.242-55.809
				c12.869-33.251,26.716-65.314,45.819-92.459c7.805-11.105,17.055-20.876,25.409-31.241
				c12.723-15.803,39.585-39.484,60.388-46.229C1103.694,520.065,991.081,324.269,878.495,128.537z M1059.676,866.578
				c-6.626,21.013-17.484,49.365-17.905,74.554c-204.762,0.274-409.588,0.548-614.341,0.832
				c-0.594-18.865-6.425-36.605-11.251-52.062c-12.769-40.919-30.171-75.414-52.472-106.626
				c-7.723-10.803-17.21-20.208-25.409-30.408c-10.209-12.687-22.603-24.047-35.399-34.147c-4.305-3.473-8.61-6.946-12.915-10.41
				c102.029-181.446,204.095-362.938,306.124-544.375c13.189,4.862,26.387,9.725,39.576,14.578
				c23.444,7.943,48.661,9.835,76.629,14.167c10.694,0,21.388,0,32.072,0c9.021-0.558,18.051-1.115,27.072-1.673
				c21.826-3.784,42.556-6.846,61.64-13.326c11.105-4.305,22.219-8.61,33.324-12.906
				c103.145,180.879,206.316,361.813,309.46,542.693C1116.837,736.416,1080.753,799.692,1059.676,866.578z"/>
			<path fill="#024375" d="M858.506,183.934c-6.197-0.64-24.504,9.277-32.072,11.663c-23.307,7.339-47.601,13.381-78.302,12.906
				c0,47.199,0,94.416,0,141.614c0,26.167-2.678,53.825,1.673,77.47c3.738,20.364,5.676,40.225,11.242,58.724
				c14.789,49.219,34.202,89.16,61.64,124.952c8.391,10.94,17.622,23.051,28.325,31.651c11.946,9.606,23.27,20.108,36.231,28.736
				c29.714,16.937,59.428,33.882,89.132,50.818c34.705,19.852,69.418,39.704,104.123,59.556c4.999-7.769,9.999-15.547,14.999-23.325
				c15.793-22.128,35.92-46.074,57.481-62.471C1054.823,525.476,956.65,354.678,858.506,183.934z"/>
			<path fill="#024375" d="M567.792,678.734c14.35-9.048,26.625-20.4,39.567-30.82c12.777-10.301,23.535-24.998,33.315-38.314
				c30.546-41.578,51.449-89.91,66.228-147.866c4.533-17.804,5.895-36.541,9.158-55.808c0-65.387,0-130.783,0-196.17
				c-28.663,3.674-65.844-7.275-86.628-15.41c-7.778-3.053-15.547-6.105-23.325-9.167c-98.282,170.752-196.6,341.55-294.882,512.303
				c8.326,8.052,16.662,16.104,24.989,24.157c11.187,13.884,23.215,26.424,33.735,41.23c4.469,6.288,10.676,13.024,13.335,20.821
				c35.536-20.263,71.081-40.536,106.617-60.808C515.859,708.165,541.834,693.449,567.792,678.734z"/>
			<path fill="#024375" d="M903.072,722.469c-50.69-30.4-91.144-51.413-174.929-49.986c-5.694,0.42-11.388,0.841-17.073,1.252
				c-13.326,2.084-26.662,4.168-39.987,6.252c-32.776,8.18-61.997,18.051-89.964,30.399c-43.031,24.714-86.08,49.429-129.111,74.143
				c-16.662,9.716-33.324,19.432-49.986,29.156c-0.137,0.411-0.274,0.832-0.411,1.243c14.286,21.991,21.424,48.551,28.315,78.302
				c2.011,8.665,4.543,18.764,4.588,28.736c196.7,0.146,393.474,0.284,590.175,0.42c6.114-40.307,22.795-74.829,37.903-106.206
				c-31.652-18.6-63.313-37.208-94.964-55.808C946.112,747.741,924.588,735.1,903.072,722.469z"/>
		</g>
	</g>
	<g>
		<g>
			<path fill="#024375" d="M1295.834,1186.028c-2.907-6.581-11.032-15.574-9.167-25.4c2.075-10.904,8.93-17.558,14.167-25.409
				c7.77-11.937,15.547-23.883,23.325-35.82c2.733-4.094,14.743-17.229,11.242-23.325c-2.687-5.402-33.827-3.519-43.314-3.327
				c-8.345,3.153-31.176-3.153-37.072,1.664c-13.883,21.515-27.767,43.04-41.65,64.555c-3.153,4.78-8.418,19.898-15.831,18.326
				c-3.043-17.311-0.832-39.137-0.832-57.893c0-6.608,1.526-18.261-1.664-22.073c-2.267-3.766-10.383-2.504-16.242-2.504
				c-14.597,0-37.894-2.642-50.397,0.841c-5.356,8.162-2.495,39.028-2.495,52.473c0,44.703,0,89.416,0,134.119
				c-0.146,0-0.284,0-0.421,0c-20.272-44.978-40.544-89.973-60.808-134.951c-4.762-10.84-17.394-46.221-24.578-52.061
				c-24.157-0.137-48.313-0.274-72.47-0.42c-9.012,8.153-20.044,44.347-25.82,57.893c-20.136,47.756-40.262,95.53-60.397,143.277
				c-0.137,0.284-0.274,0.558-0.411,0.841c-8.473-19.303-16.946-38.598-25.409-57.892c0.795-9.634,13.18-13.783,17.915-20.418
				c8.975-12.586,10.73-27.365,13.737-46.641c5.521-35.381-18.445-71.209-42.482-77.059c-27.758,0-55.535,0-83.292,0
				c-18.051,0-36.103,0-54.154,0c-8.253,0-18.974-0.996-25.82,0.841c-5.209,7.952-2.504,36.898-2.495,49.977
				c0,37.063,0,74.144,0,111.206c-0.009,13.783-3.08,36.678,2.075,46.65c9.423,3.254,61.74,1.582,67.892-2.916
				c2.34-10.639,0.841-25.793,0.841-37.903c0.128-4.168,0.274-8.335,0.411-12.494c2.349-2.093,27.795-0.933,33.315-0.832
				c10.602,15.419,10.639,39.768,21.25,54.977c18.463,0.137,36.926,0.274,55.388,0.411c9.067,0,16.589,0.959,20.83-3.748
				c0.548,0.055,1.672,3.409,3.747,4.168c6.243,0,12.495,0,18.737,0c16.525-0.283,33.05-0.558,49.566-0.832
				c4.46-2.13,10.548-18.893,12.915-24.157c25.82,0,51.65,0,77.47,0c4.816,4.972,6.763,19.487,13.746,21.653
				c11.379,0,22.768,0,34.147,0c24.486,0.558,44.365,0,69.144,0c7.623,0,33.333,2.084,37.903-0.832
				c1.938-3.053,3.884-6.105,5.832-9.158c4.323-6.864,24.229-40.353,29.156-42.903c0.822-0.137,1.664-0.274,2.495-0.42
				c10.721,10.374,16.132,40.38,25.4,54.154c14.533,3.299,35.097,0.832,51.239,0.832c5.794,0,15.3,1.28,19.568-0.832
				c8.271-3.985-3.418-24.047-6.243-29.997C1315.823,1230.457,1305.824,1208.247,1295.834,1186.028z M749.805,1164.376
				c-2.952-5.722-3.217-20.592-0.42-26.661c19.157,0,38.314,0,57.472,0c3.537,1.298,7.97,7.12,8.756,11.251
				C819.798,1171.167,769.428,1164.686,749.805,1164.376z M1015.941,1197.28c-2.221,3.08-17.905,1.389-22.905,1.243
				c-2.038-4.671,7.988-24.084,10.411-29.147c0.42,0,0.832,0,1.252,0C1006.875,1172.858,1016.983,1194.035,1015.941,1197.28z"/>
			<path fill="#024375" d="M283.321,1153.545c-13.509-2.888-52.363-3.894-54.977-15.41c5.53-10.072,27.831-10.566,42.482-7.495
				c13.555,2.833,15.209,14.34,21.241,16.241c16.799-0.557,33.598-1.115,50.398-1.663c4.853-2.358,4.945-10.392,3.747-17.494
				c-2.486-14.752-7.897-28.151-17.494-35.819c-37.373-29.869-132.008-23.389-156.192,12.906c-3.747,5.63-6.773,12.851-8.738,19.998
				c-8.244,29.906,6.005,57.436,23.325,68.723c12.101,7.888,31.377,10.758,47.062,14.158c14.798,3.208,49.091,1.207,54.977,12.074
				c-0.503,13.326-44.758,13.728-58.313,9.167c-7.047-2.367-10.84-10.739-14.578-16.662c-15.428-3.729-41.651-0.914-59.145-0.832
				c-2.861,54.565,27.84,64.985,73.302,72.891c10.474,1.819,26.177,2.02,37.072,0.411c9.03-0.695,18.051-1.38,27.073-2.075
				c27.264-5.247,45.38-15.775,54.145-39.156c0.978-6.389,1.947-12.777,2.916-19.157c1.38-8.939-0.448-19.239-2.084-25.829
				C341.524,1166.149,316.444,1160.637,283.321,1153.545z"/>
			<path fill="#024375" d="M437.009,1076.906c-6.736-4.405-51.257-2.194-64.144-2.084c-0.832,0.558-1.663,1.115-2.495,1.673
				c-4.323,12.339-1.664,34.238-1.664,49.566c0,34.979,0,69.975,0,104.954c0,12.174-2.715,43.744,3.747,48.725
				c11.197,2.065,53.295,2.285,63.303-0.411c5.338-8.125,2.504-38.68,2.504-52.061c0-33.736,0-67.48,0-101.207
				C438.261,1110.779,440.802,1089.876,437.009,1076.906z"/>
			<path fill="#024375" d="M658.167,1075.243c-66.072-0.137-132.172-0.274-198.254-0.42c-1.106,0.841-2.221,1.673-3.327,2.504
				c-3.647,14.651-0.832,36.139-0.832,52.481c0,7.641-0.996,14.99,3.327,18.316c21.241,0.283,42.482,0.558,63.724,0.841
				c0.137,31.926,0.283,63.87,0.42,95.796c0,12.037-2.221,30.537,2.916,37.903c6.581,1.499,58.048,2.395,62.892,0
				c6.553-3.345,3.748-23.755,3.748-33.324c0.137-33.178,0.274-66.365,0.42-99.543c2.075-2.623,12.247-1.252,16.653-1.252
				c15.967-0.137,31.935-0.274,47.902-0.42c4.99-2.413,3.748-9.798,3.748-17.073
				C661.504,1119.087,664.127,1079.758,658.167,1075.243z"/>
		</g>
	</g>
</g>
</svg>
